<svg xmlns="http://www.w3.org/2000/svg" width="48" height="48" id="user"><g transform="translate(0 -1004.362)"><circle cx="24" cy="1028.362" r="24" fill="#1d67b1"></circle><path style="line-height:normal;text-indent:0;text-align:start;text-decoration-line:none;text-decoration-style:solid;text-decoration-color:#000;text-transform:none;block-progression:tb;isolation:auto;mix-blend-mode:normal" fill="#154082" fill-rule="evenodd" d="M25.932 47.91a24 24 0 0 0 2.148-.26 24 24 0 0 0 2.34-.525 24 24 0 0 0 2.277-.756 24 24 0 0 0 2.19-.98 24 24 0 0 0 2.08-1.194 24 24 0 0 0 1.951-1.394 24 24 0 0 0 1.803-1.584 24 24 0 0 0 1.634-1.756 24 24 0 0 0 1.454-1.91 24 24 0 0 0 1.254-2.045 24 24 0 0 0 1.042-2.16 24 24 0 0 0 .547-1.5l-18.798-18.8-.008-.007a5.53 5.53 0 0 0-.381-.348l-.008-.005a5.506 5.506 0 0 0-.422-.315c-.103-.07-.212-.132-.32-.195-.044-.026-.086-.056-.131-.08a5.421 5.421 0 0 0-.473-.229l-.004-.002c-.162-.069-.33-.13-.5-.183-.1-.032-.207-.055-.31-.08a5.432 5.432 0 0 0-1.317-.168c-3.021 0-5.48 2.469-5.48 5.5 0 .189.01.376.03.56v.002c.018.184.045.367.081.545.013.062.032.122.047.184.028.114.053.23.088.341l.002.004c.053.17.115.34.184.502l.002.004c.069.163.144.322.228.477l.004.006c.084.154.176.304.273.449.025.036.053.07.079.105.076.108.152.215.236.317l.006.006c.111.135.228.264.351.388l.004.004 2.606 2.606H21c-4.148 0-7.5 3.368-7.5 7.529v4.516a.5.5 0 0 0 .5.5L25.932 47.91z" color="#000" font-family="sans-serif" font-weight="400" transform="translate(0 1004.362)"></path><path style="line-height:normal;text-indent:0;text-align:start;text-decoration-line:none;text-decoration-style:solid;text-decoration-color:#000;text-transform:none;block-progression:tb;isolation:auto;mix-blend-mode:normal" fill="#fff" fill-rule="evenodd" d="M15.48 4.434c-3.021 0-5.48 2.469-5.48 5.5 0 3.03 2.459 5.5 5.48 5.5 3.022 0 5.48-2.47 5.48-5.5.001-3.031-2.458-5.5-5.48-5.5zm0 1c2.48 0 4.481 2.007 4.48 4.5 0 2.492-2 4.5-4.48 4.5a4.483 4.483 0 0 1-4.48-4.5c0-2.493 2.001-4.5 4.48-4.5zm-2.98 11c-4.148 0-7.5 3.368-7.5 7.529v4.516a.5.5 0 0 0 .5.5h3.854a.5.5 0 0 0 .292 0h11.708a.5.5 0 0 0 .292 0H25.5a.5.5 0 0 0 .5-.5v-4.516c0-4.161-3.352-7.53-7.5-7.53h-6zm0 1h6c3.609 0 6.5 2.902 6.5 6.529v4.016h-3v-4.024a.5.5 0 0 0-.508-.506.5.5 0 0 0-.492.506v4.024H10v-4.024a.5.5 0 0 0-.508-.506.5.5 0 0 0-.492.506v4.024H6v-4.016c0-3.627 2.891-6.53 6.5-6.53z" color="#000" font-family="sans-serif" font-weight="400" overflow="visible" transform="translate(8.5 1011.362)"></path></g></svg>