<svg xmlns="http://www.w3.org/2000/svg" enable-background="new 0 0 64 64" viewBox="0 0 64 64" id="friend-thinking"><path d="M42,47.12c-0.24-0.5-0.35-1.05-0.33-1.61c0.01-0.37,0.08-0.74,0.22-1.09l0.96-2.58c0.4-1.08,0.58-2.13,0.54-3.11
		c-0.04-1.02-0.28-2.01-0.71-2.93l-2.15-4.61c-0.57-1.24-0.86-2.55-0.87-3.9l-0.01-1.78c0.26-6.46-2.22-11.32-7.22-14.26
		c-1.15-0.68-2.44-1.25-3.86-1.72c-4.43-1.47-9.31-1.47-13.75,0c-7.56,2.5-11.39,8.03-11.06,15.96l-0.02,1.8
		c-0.01,1.37-0.31,2.68-0.88,3.9L0.71,35.8c-0.42,0.92-0.66,1.91-0.7,2.93c-0.04,0.98,0.14,2.03,0.54,3.11l0.96,2.58
		c0.13,0.35,0.2,0.72,0.21,1.1c0.02,0.55-0.09,1.1-0.33,1.61l-0.51,1.09c-0.46,0.98-0.54,2.03-0.22,2.96
		c0.43,1.23,1.37,1.65,2.1,1.65h4.05c-0.17,1.82-0.1,3.81,0.24,5.99c0.03,0.24,0.24,0.42,0.48,0.42h4.73c0,0,0,0,0.01,0
		c0,0,0,0,0.01,0h23.59c0.24,0,0.45-0.18,0.49-0.42c0.33-2.18,0.4-4.17,0.23-5.99h3.97c0.57,0.02,1.33-0.23,1.84-0.98
		c0.15-0.21,0.27-0.47,0.37-0.77c0.28-0.89,0.2-1.91-0.25-2.86L42,47.12z M12.76,58.26v-3.43c0-0.27-0.22-0.49-0.49-0.49
		c-0.28,0-0.5,0.22-0.5,0.49v3.43H7.96c-0.34-2.39-0.36-4.53-0.07-6.41c0.6-3.77,2.47-6.55,5.65-8.4l0.14,0.17l0.86,0.99
		c-0.6,0.52-0.87,1.26-0.74,2.06c0.26,1.52,1.83,2.82,3.83,3.15c0.33,0.06,0.66,0.23,0.92,0.49l0.61,0.61l-0.52,0.47
		c-0.2,0.18-0.22,0.48-0.05,0.69l5.25,6.18H12.76z M12.74,23.14c1.47-0.98,2.36-2.36,2.55-3.96c0.25,0.26,0.57,0.53,0.95,0.78
		c1.16,0.77,2.96,1.39,5.63,1.01c1.02-0.14,1.93-0.04,2.69,0.31c0.82,0.38,1.55,0.99,2.23,1.88c0.09,0.07,2.14,1.9,4.93,1.12
		c0.35,0.04,1.55,0.26,1.55,1.41v7.54c0,3.51-1.61,6.74-4.42,8.88c-0.01,0.01-0.01,0.01-0.02,0.02c0,0.01-0.01,0.01-0.02,0.02
		c-1.65,1.57-3.98,2.39-7.08,2.53c-0.08-1.46-0.64-2.63-1.66-3.49c-0.4-0.34-0.95-0.41-1.43-0.18c-0.51,0.24-0.82,0.73-0.82,1.28
		v0.36l-2.48-2.08c-0.54-0.46-1.25-0.62-1.92-0.5c-0.25,0.05-0.49,0.13-0.72,0.26c-1.65-2-2.56-4.5-2.56-7.09v-8.22
		c0-0.35,0.3-0.77,0.63-0.89c0.41-0.15,0.79-0.31,1.15-0.5C12.21,23.48,12.49,23.32,12.74,23.14z M24.63,45.31v2.26
		c0,0.31-0.09,0.6-0.24,0.87l-0.78-0.88c-0.09-0.1-0.21-0.16-0.34-0.17c-0.14-0.01-0.27,0.04-0.36,0.13L22.38,48l-0.32-0.38
		c-0.32-0.39-0.47-0.91-0.4-1.42c0.03-0.18,0.04-0.36,0.05-0.53C22.76,45.62,23.74,45.51,24.63,45.31z M14.17,41.06
		c0.19,0.04,0.38,0.14,0.54,0.27l2.89,2.42c0.22,0.18,0.52,0.22,0.78,0.1c0.26-0.12,0.42-0.38,0.42-0.66v-0.9
		c0-0.2,0.13-0.33,0.26-0.39c0.08-0.04,0.23-0.08,0.38,0.04c1.09,0.92,1.5,2.27,1.25,4.13c-0.11,0.78,0.12,1.58,0.62,2.18l0.34,0.41
		l-1.76,1.6l-0.64-0.64c-0.41-0.41-0.92-0.68-1.46-0.77c-1.77-0.29-2.86-1.4-3.02-2.34c-0.09-0.59,0.16-1.06,0.74-1.37
		c0.13-0.08,0.22-0.2,0.25-0.35c0.03-0.15-0.02-0.3-0.11-0.41l-1.16-1.34l-1.5-1.73C13.33,41.04,13.77,40.95,14.17,41.06z
		 M25.14,58.26l-5.49-6.46l3.55-3.22l8.58,9.68H25.14z M35.44,58.26h-2.35l-8.01-9.04l0.05-0.07c0.32-0.47,0.49-1.02,0.49-1.58
		v-2.52c1.4-0.43,2.59-1.08,3.59-1.96C34.44,45.8,36.49,50.76,35.44,58.26z M36.47,51.85c-0.64-4.28-2.81-7.43-6.46-9.44
		c2.7-2.32,4.24-5.61,4.24-9.18v-7.54c0-1.28-0.86-1.93-1.67-2.2c-0.32-0.12-0.63-0.18-0.88-0.2c-0.05,0-0.11,0.01-0.17,0.02
		c-0.05,0.02-0.11,0.03-0.16,0.04c-2.21,0.57-3.84-0.85-3.85-0.85c-0.72-0.96-1.57-1.67-2.55-2.12c-0.39-0.18-0.81-0.3-1.25-0.37
		c-0.62-0.11-1.28-0.11-1.99-0.02c-0.12,0.02-0.24,0.03-0.36,0.04c-2.44,0.27-3.98-0.4-4.9-1.12c-0.34-0.26-0.59-0.53-0.78-0.76
		c-0.2-0.25-0.53-0.34-0.83-0.24c-0.31,0.11-0.52,0.4-0.52,0.72c-0.04,2.07-1.43,3.7-3.9,4.57c-0.72,0.26-1.29,1.06-1.29,1.82v8.22
		c0,2.87,1.03,5.63,2.88,7.82c-0.08,0.28-0.03,0.6,0.17,0.84l0.69,0.79c-3.35,2.01-5.35,5.08-5.96,9.16H2.78
		c-0.14,0.01-0.85-0.01-1.19-1c-0.24-0.68-0.17-1.46,0.19-2.21l0.5-1.09c0.31-0.65,0.45-1.37,0.42-2.06
		C2.69,45,2.6,44.53,2.43,44.08L1.47,41.5c-0.35-0.96-0.52-1.88-0.48-2.73c0.04-0.89,0.24-1.75,0.62-2.56l2.15-4.6
		c0.63-1.35,0.95-2.8,0.96-4.31l0.02-1.83C4.43,18,8.03,12.81,15.13,10.46c2.46-0.81,5.06-1.15,7.64-1.02
		c1.87,0.09,3.72,0.43,5.5,1.02c7.1,2.35,10.69,7.54,10.39,15.04l0.01,1.8c0.01,1.48,0.34,2.93,0.97,4.31l2.15,4.6
		c0.37,0.81,0.58,1.67,0.61,2.56c0.04,0.85-0.12,1.77-0.48,2.73l-0.95,2.57c-0.18,0.46-0.27,0.93-0.28,1.4
		c-0.03,0.71,0.12,1.43,0.42,2.08l0.52,1.09c0.34,0.73,0.41,1.49,0.2,2.14c-0.31,0.97-0.94,1.07-1.25,1.07H36.47z"></path><path fill="#61a2f9" d="M35.44 58.26h-2.35l-8.01-9.04.05-.07c.32-.47.49-1.02.49-1.58v-2.52c1.4-.43 2.59-1.08 3.59-1.96C34.44 45.8 36.49 50.76 35.44 58.26zM12.76 58.26v-3.43c0-.27-.22-.49-.49-.49-.28 0-.5.22-.5.49v3.43H7.96c-1.01-7.19.82-12.04 5.58-14.81l1 1.16c-.6.52-.87 1.26-.74 2.06.26 1.52 1.83 2.82 3.83 3.15.33.06.66.23.92.49l.61.61-.52.47c-.2.18-.22.48-.05.69l5.25 6.18H12.76z"></path><polygon fill="#d85c72" points="31.78 58.26 25.14 58.26 19.65 51.8 23.2 48.58"></polygon><path fill="#f7a192" d="M21.65,48.66l-1.76,1.6l-0.64-0.64c-0.41-0.41-0.92-0.68-1.46-0.77c-1.77-0.29-2.86-1.4-3.02-2.34
		c-0.09-0.59,0.16-1.06,0.74-1.37c0.13-0.08,0.22-0.2,0.25-0.35c0.03-0.15-0.02-0.3-0.11-0.41l-2.66-3.07
		c0.5-0.4,1.23-0.4,1.72,0.02l2.89,2.42c0.22,0.18,0.52,0.22,0.78,0.1c0.26-0.12,0.42-0.38,0.42-0.66v-0.9
		c0-0.2,0.13-0.33,0.26-0.39c0.08-0.04,0.23-0.08,0.38,0.04c1.09,0.92,1.5,2.27,1.25,4.13c-0.11,0.78,0.12,1.58,0.62,2.18
		L21.65,48.66z"></path><path fill="#f9a698" d="M24.63,45.31v2.26c0,0.31-0.09,0.6-0.24,0.87l-0.78-0.88c-0.09-0.1-0.21-0.16-0.34-0.17
		c-0.14-0.01-0.27,0.04-0.36,0.13L22.38,48l-0.32-0.38c-0.32-0.39-0.47-0.91-0.4-1.42c0.03-0.18,0.04-0.36,0.05-0.53
		C22.76,45.62,23.74,45.51,24.63,45.31z"></path><path fill="#ffb1a0" d="M31.72,24.28c-2.79,0.78-4.84-1.05-4.93-1.12c-0.68-0.89-1.41-1.5-2.23-1.88c-0.76-0.35-1.67-0.45-2.69-0.31
		c-3.55,0.5-5.56-0.76-6.58-1.79c-0.26,2.23-1.89,4.02-4.52,4.95c-0.33,0.12-0.63,0.54-0.63,0.89v8.22c0,2.59,0.91,5.09,2.56,7.09
		c0.83-0.46,1.89-0.39,2.64,0.24l2.48,2.08v-0.36c0-0.55,0.31-1.04,0.82-1.28c0.48-0.23,1.03-0.16,1.43,0.18
		c1.02,0.86,1.58,2.03,1.66,3.49c3.1-0.14,5.43-0.96,7.08-2.53c0.01-0.01,0.02-0.01,0.02-0.02c0.01-0.01,0.01-0.01,0.02-0.02
		c2.81-2.14,4.42-5.37,4.42-8.88v-7.54C33.27,24.54,32.07,24.32,31.72,24.28z M23.19,41.36c-0.04,0.02-0.08,0.02-0.13,0.02
		c-0.21,0-0.41-0.14-0.47-0.36C21.92,38.6,18.23,39,18.19,39c-0.27,0.04-0.51-0.16-0.54-0.43c-0.04-0.27,0.16-0.51,0.43-0.55
		c0.18-0.02,4.56-0.49,5.46,2.74C23.61,41.02,23.46,41.29,23.19,41.36z"></path><path fill="#264a60" d="M22.77,9.44c-1.87,0.09-3.73,0.43-5.5,1.02C10.17,12.81,6.57,18,6.88,25.47L6.86,27.3
		c-0.01,1.51-0.33,2.96-0.96,4.31l-2.15,4.6c-0.38,0.81-0.58,1.67-0.62,2.56c-0.04,0.85,0.13,1.77,0.48,2.73l0.96,2.58
		c0.17,0.45,0.26,0.92,0.27,1.41c0.03,0.69-0.11,1.41-0.42,2.06l-0.5,1.09c-0.36,0.75-0.43,1.53-0.19,2.21c0.31,0.91,0.94,1,1.15,1
		h-2.1c-0.14,0.01-0.85-0.01-1.19-1c-0.24-0.68-0.17-1.46,0.19-2.21l0.5-1.09c0.31-0.65,0.45-1.37,0.42-2.06
		C2.69,45,2.6,44.53,2.43,44.08L1.47,41.5c-0.35-0.96-0.52-1.88-0.48-2.73c0.04-0.89,0.24-1.75,0.62-2.56l2.15-4.6
		c0.63-1.35,0.95-2.8,0.96-4.31l0.02-1.83C4.43,18,8.03,12.81,15.13,10.46C17.59,9.65,20.19,9.31,22.77,9.44z"></path><path fill="#2c4e67" d="M41.63,48.64c0.34,0.73,0.41,1.49,0.2,2.14c-0.31,0.97-0.94,1.07-1.25,1.07h-4.11
		c-0.64-4.28-2.81-7.43-6.46-9.44c2.7-2.32,4.24-5.61,4.24-9.18v-7.54c0-1.28-0.86-1.93-1.67-2.2c-0.32-0.12-0.63-0.18-0.88-0.2
		c-0.05,0-0.11,0.01-0.17,0.02c-0.05,0.02-0.11,0.03-0.16,0.04c-2.21,0.57-3.84-0.85-3.85-0.85c-0.72-0.96-1.57-1.67-2.55-2.12
		c-0.39-0.18-0.81-0.3-1.25-0.37c-0.62-0.11-1.28-0.11-1.99-0.02c-0.12,0.02-0.24,0.03-0.36,0.04c-2.44,0.27-3.98-0.4-4.9-1.12
		c-0.34-0.26-0.59-0.53-0.78-0.76c-0.2-0.25-0.53-0.34-0.83-0.24c-0.31,0.11-0.52,0.4-0.52,0.72c-0.04,2.07-1.43,3.7-3.9,4.57
		c-0.72,0.26-1.29,1.06-1.29,1.82v8.22c0,2.87,1.03,5.63,2.88,7.82c-0.08,0.28-0.03,0.6,0.17,0.84l0.69,0.79
		c-3.35,2.01-5.35,5.08-5.96,9.16H4.88c-0.21,0-0.84-0.09-1.15-1c-0.24-0.68-0.17-1.46,0.19-2.21l0.5-1.09
		c0.31-0.65,0.45-1.37,0.42-2.06c-0.01-0.49-0.1-0.96-0.27-1.41L3.61,41.5c-0.35-0.96-0.52-1.88-0.48-2.73
		c0.04-0.89,0.24-1.75,0.62-2.56l2.15-4.6c0.63-1.35,0.95-2.8,0.96-4.31l0.02-1.83C6.57,18,10.17,12.81,17.27,10.46
		c1.77-0.59,3.63-0.93,5.5-1.02c1.87,0.09,3.72,0.43,5.5,1.02c7.1,2.35,10.69,7.54,10.39,15.04l0.01,1.8
		c0.01,1.48,0.34,2.93,0.97,4.31l2.15,4.6c0.37,0.81,0.58,1.67,0.61,2.56c0.04,0.85-0.12,1.77-0.48,2.73l-0.95,2.57
		c-0.18,0.46-0.27,0.93-0.28,1.4c-0.03,0.71,0.12,1.43,0.42,2.08L41.63,48.64z"></path><path d="M23.19 41.36c-.04.02-.08.02-.13.02-.21 0-.41-.14-.47-.36C21.92 38.6 18.23 39 18.19 39c-.27.04-.51-.16-.54-.43-.04-.27.16-.51.43-.55.18-.02 4.56-.49 5.46 2.74C23.61 41.02 23.46 41.29 23.19 41.36zM62.08 4.76H42.35c-1.06 0-1.93.86-1.93 1.92v12.79c0 1.06.87 1.93 1.93 1.93h2.02v4.17c0 .2.12.38.3.45.06.03.13.04.19.04.13 0 .26-.05.35-.15l4.44-4.52h12.43c1.06 0 1.92-.86 1.92-1.93V6.68C64 5.62 63.14 4.76 62.08 4.76zM63.02 19.46c0 .52-.43.94-.94.94H49.43c-.17 0-.3.09-.39.21l-3.69 3.75v-3.45c0-.28-.22-.5-.49-.5h-2.51c-.52 0-.94-.42-.94-.94V6.68c0-.52.42-.94.94-.94h19.73c.51 0 .94.42.94.94V19.46z"></path><path fill="#ffd26c" d="M62.08,5.74H42.35c-0.52,0-0.94,0.42-0.94,0.94v12.79c0,0.52,0.42,0.94,0.94,0.94h2.51
		c0.27,0,0.49,0.22,0.49,0.5v3.45l3.69-3.75c0.09-0.12,0.22-0.21,0.39-0.21h12.65c0.51,0,0.94-0.42,0.94-0.94V6.68
		C63.02,6.16,62.59,5.74,62.08,5.74z M52.21,18.83c-3.15,0-5.71-2.56-5.71-5.71s2.56-5.71,5.71-5.71c3.15,0,5.71,2.56,5.71,5.71
		S55.36,18.83,52.21,18.83z"></path><path d="M52.21,7.41c-3.15,0-5.71,2.56-5.71,5.71s2.56,5.71,5.71,5.71c3.15,0,5.71-2.56,5.71-5.71S55.36,7.41,52.21,7.41z
		 M52.21,17.85c-2.6,0-4.72-2.12-4.72-4.73c0-2.6,2.12-4.72,4.72-4.72c2.61,0,4.73,2.12,4.73,4.72
		C56.94,15.73,54.82,17.85,52.21,17.85z"></path><path fill="#ce516b" d="M52.21,8.4c-2.6,0-4.72,2.12-4.72,4.72c0,2.61,2.12,4.73,4.72,4.73c2.61,0,4.73-2.12,4.73-4.73
		C56.94,10.52,54.82,8.4,52.21,8.4z M49.99,10.44c0-0.27,0.22-0.49,0.49-0.49s0.49,0.22,0.49,0.49v1.09c0,0.27-0.22,0.49-0.49,0.49
		s-0.49-0.22-0.49-0.49V10.44z M53.03,16.28c-0.04,0.01-0.09,0.02-0.13,0.02c-0.22,0-0.41-0.15-0.47-0.36
		c-0.27-0.98-1.89-0.82-1.9-0.82c-0.27,0.04-0.52-0.16-0.55-0.43c-0.03-0.27,0.16-0.51,0.43-0.55c0.1-0.01,2.47-0.26,2.97,1.53
		C53.45,15.94,53.29,16.21,53.03,16.28z M54.44,11.53c0,0.27-0.22,0.49-0.49,0.49s-0.49-0.22-0.49-0.49v-1.09
		c0-0.27,0.22-0.49,0.49-0.49s0.49,0.22,0.49,0.49V11.53z"></path><path d="M50.97 10.44v1.09c0 .27-.22.49-.49.49s-.49-.22-.49-.49v-1.09c0-.27.22-.49.49-.49S50.97 10.17 50.97 10.44zM54.44 10.44v1.09c0 .27-.22.49-.49.49s-.49-.22-.49-.49v-1.09c0-.27.22-.49.49-.49S54.44 10.17 54.44 10.44zM53.03 16.28c-.04.01-.09.02-.13.02-.22 0-.41-.15-.47-.36-.27-.98-1.89-.82-1.9-.82-.27.04-.52-.16-.55-.43-.03-.27.16-.51.43-.55.1-.01 2.47-.26 2.97 1.53C53.45 15.94 53.29 16.21 53.03 16.28z"></path></svg>