<svg xmlns="http://www.w3.org/2000/svg" viewBox="0 0 47.5 47.5" id="friend"><defs><clipPath id="a"><path d="M0 38h38V0H0v38Z"></path></clipPath></defs><path fill="#664500" d="M15 30H8.75v15h3.75V35H15v10h3.75V30H15z"></path><g clip-path="url(#a)" transform="matrix(1.25 0 0 -1.25 0 47.5)"><path fill="#292f33" d="M6 1v1s0 1 2 1 2-1 2-1V1H6ZM12 1v1s0 1 2 1 2-1 2-1V1h-4ZM11.5 37a5.469 5.469 0 0 1-3.181-1.018A3.492 3.492 0 0 1 5 32.5c0-1.542.007-3.484 2.038-4.208A5.489 5.489 0 0 1 11.5 26a5.5 5.5 0 1 1 0 11"></path><path fill="#d79e84" d="M1.999 11a1 1 0 0 0-.873 1.485l5 9.001a1 1 0 1 0 1.748-.972l-5-8.999A1 1 0 0 0 1.999 11M20.001 11a1 1 0 0 0-.875.515l-5 8.999a1 1 0 1 0 1.748.972l5-9.001A.998.998 0 0 0 20.001 11"></path><path fill="#4289c1" d="M17 21a2 2 0 0 1-2 2H7a2 2 0 0 1-2-2v-1h2v-7h8v7h2v1z"></path><path fill="#d79e84" d="M9 26v-4a2 2 0 0 1 4 0v4H9Z"></path><path fill="#bf6952" d="m13 26-4-.019V22s2-1 4 0v4z"></path><path fill="#d79e84" d="M16 34H6v-6c0-2.763 2.238-5 5-5s5 2.237 5 5v6z"></path><path fill="#292f33" d="M9 34H6v-4c2.333 0 2.85 2.412 2.965 3.488C9.004 32.412 9.779 30 16 30v4H9Z"></path><path fill="#c1694f" d="M13 25H9s0-1 2-1 2 1 2 1"></path><path fill="#664500" d="M9 28.5a.5.5 0 1 0-1 0 .5.5 0 0 0 1 0M14 28.5a.5.5 0 1 0-1 0 .5.5 0 0 0 1 0"></path><path fill="#c1694f" d="M10 27h2s0-1-1-1-1 1-1 1"></path><path fill="#67757f" d="M28 14h-5V2h3v8h2V2h3v12h-3z"></path><path fill="#292f33" d="M22 1v1s0 1 2 1 2-1 2-1V1h-4ZM28 1v1s0 1 2 1 2-1 2-1V1h-4Z"></path><path fill="#642116" d="M33 32.5a3.492 3.492 0 0 1-3.319 3.482A5.469 5.469 0 0 1 26.5 37a5.5 5.5 0 0 1 0-11c1.84 0 3.464.906 4.462 2.292C32.993 29.016 33 30.958 33 32.5"></path><path fill="#d79e84" d="M17.999 11a1 1 0 0 0-.873 1.485l5 9.001a1 1 0 1 0 1.748-.972l-5-8.999a1 1 0 0 0-.875-.515M36.001 11a1 1 0 0 0-.875.515l-5 8.999a.999.999 0 1 0 1.748.972l5-9.001A.998.998 0 0 0 36.001 11"></path><path fill="#fdcb58" d="M33 21a2 2 0 0 1-2 2h-8a2 2 0 0 1-2-2v-1h2v-7h8v7h2v1z"></path><path fill="#d79e84" d="M25 26v-4a2 2 0 0 1 4 0v4h-4Z"></path><path fill="#bf6952" d="m29 26-4-.019V22s2-1 4 0v4z"></path><path fill="#d79e84" d="M32 34H22v-6c0-2.763 2.238-5 5-5s5 2.237 5 5v6z"></path><path fill="#642116" d="M29 34h-7v-4c6.221 0 6.996 2.412 7.035 3.488C29.15 32.412 29.667 30 32 30v4h-3Z"></path><path fill="#c1694f" d="M29 25h-4s0-1 2-1 2 1 2 1"></path><path fill="#664500" d="M25 28.5a.5.5 0 1 0-1 0 .5.5 0 0 0 1 0M30 28.5a.5.5 0 1 0-1 0 .5.5 0 0 0 1 0"></path><path fill="#c1694f" d="M26 27h2s0-1-1-1-1 1-1 1"></path></g></svg>