<svg xmlns="http://www.w3.org/2000/svg" xmlns:xlink="http://www.w3.org/1999/xlink" width="50" height="50" id="games"><defs><linearGradient id="a"><stop offset="0" stop-color="#24f3d2"></stop><stop offset=".394" stop-color="#0674f0"></stop><stop offset=".507" stop-color="#6961b5"></stop><stop offset=".813" stop-color="#f34660"></stop><stop offset="1" stop-color="#ee078d"></stop></linearGradient><linearGradient id="b" x1="868.253" x2="937.656" y1="521.354" y2="588.736" gradientTransform="translate(-1382.259 176.3) scale(1.60193)" gradientUnits="userSpaceOnUse" xlink:href="#a"></linearGradient></defs><g transform="translate(0 -1002.362)"><rect width="50" height="50" y="1002.362" fill="url(#b)" rx="10.567" ry="10.567"></rect><path fill="#fff" fill-rule="evenodd" d="M25 1014.112a2.5 2.5 0 0 0-2.5 2.5 2.5 2.5 0 0 0 .992 1.99H22.5c-.554 0-1 .447-1 1 0 .507.379.905.865.973v.01h1v-.01a.985.985 0 0 1-.865-.972c0-.554.446-1 1-1h.522c-1.018-1.388-1.02-3.229 1.119-4.477-.048 0-.093-.014-.14-.014zm.147.016c-1.321 1.156-1.687 2.865-.266 4.5h-.508a.986.986 0 0 0-.873.975c0 .506.379.905.865.973v.01h3.245c.499-.057.89-.464.89-.979 0-.554-.446-1-1-1h-.99a2.493 2.493 0 0 0-1.363-4.475zm-2.784 7.453c.023 4.117-.303 7.67-1.072 11.032h1c.769-3.362 1.095-6.915 1.072-11.032h-1zm2 0c.023 4.117-.303 7.67-1.072 11.032h5.416c-.773-3.364-1.117-6.917-1.096-11.032h-3.248zm-3.308 12.032-.002.01h-.361c-.999 0-1.692.955-1.692 2 0 .356.085.698.23 1h-.376c-1.024 0-1.854.851-1.854 1.878v.774l.002.01v.01l-.002.361v.963h1v-.963l.002-.361v-.01l-.002-.01v-.774c0-1.027.83-1.88 1.854-1.879h.377a2.302 2.302 0 0 1-.23-1c0-1.044.692-2 1.69-2h.362l.002-.01h-1zm2 0-.002.01h-.361c-.999 0-1.692.955-1.692 2 0 .356.085.699.23 1h-.376c-1.024 0-1.854.851-1.854 1.878v.774l.002.01v.01l-.002.361v.963h14v-2.113c0-1.027-.831-1.879-1.855-1.879h-.377a2.3 2.3 0 0 0 .232-1c0-1.044-.695-2-1.693-2h-.362l-.002-.01h-5.888z"></path></g></svg>