<svg xmlns="http://www.w3.org/2000/svg" enable-background="new 0 0 32 32" viewBox="0 0 32 32" id="gift"><path fill="#a6daf6" d="M16.25 16.554v12h6.5c.552 0 1-.448 1-1v-11H16.25zM14.25 16.554v12h-6.5c-.552 0-1-.448-1-1v-11H14.25z"></path><path fill="#a6daf6" d="M24.75,11.554h-8.5v5h2.469h6.031c0.552,0,1-0.448,1-1v-3C25.75,12.002,25.302,11.554,24.75,11.554z"></path><rect width="2" height="17" x="14.25" y="11.554" fill="#c9e7f9"></rect><path fill="#80c8ef" d="M14.25,16.554L14.25,16.554h-7.5v11c0,0.277,0.113,0.528,0.295,0.709l7.205-7.205V16.554z"></path><polygon fill="#a6daf6" points="16.25 19.058 16.25 11.554 14.25 11.554 14.25 21.058"></polygon><polygon fill="#80c8ef" points="16.25 11.554 16.25 16.554 18.719 16.554 18.754 16.554 23.754 11.554"></polygon><polygon fill="#80c8ef" points="16.25 19.058 18.754 16.554 16.25 16.554"></polygon><path fill="#80c8ef" d="M14.25,11.554h-8.5c-0.552,0-1,0.448-1,1v3c0,0.552,0.448,1,1,1h5.563h2.937V11.554z"></path><path fill="#12a8e1" d="M24.75,17.054h-6.031c-0.276,0-0.5-0.224-0.5-0.5s0.224-0.5,0.5-0.5h6.031c0.276,0,0.5-0.225,0.5-0.5v-3      c0-0.275-0.224-0.5-0.5-0.5h-19c-0.276,0-0.5,0.225-0.5,0.5v3c0,0.275,0.224,0.5,0.5,0.5h5.563c0.276,0,0.5,0.224,0.5,0.5      s-0.224,0.5-0.5,0.5H5.75c-0.827,0-1.5-0.673-1.5-1.5v-3c0-0.827,0.673-1.5,1.5-1.5h19c0.827,0,1.5,0.673,1.5,1.5v3      C26.25,16.381,25.577,17.054,24.75,17.054z"></path><path fill="#12a8e1" d="M22.75 29.054h-15c-.827 0-1.5-.673-1.5-1.5v-11c0-.276.224-.5.5-.5h7.5c.276 0 .5.224.5.5s-.224.5-.5.5h-7v10.5c0 .275.224.5.5.5h15c.276 0 .5-.225.5-.5v-10.5h-7c-.276 0-.5-.224-.5-.5s.224-.5.5-.5h7.5c.276 0 .5.224.5.5v11C24.25 28.381 23.577 29.054 22.75 29.054zM15.25 12.054h-2.5c-.276 0-.5-.224-.5-.5s.224-.5.5-.5h2v-2c0-.276.224-.5.5-.5s.5.224.5.5v2.5C15.75 11.83 15.526 12.054 15.25 12.054z"></path><path fill="#12a8e1" d="M12.75,12.054c-1.654,0-3-1.346-3-2.999c0-1.654,1.346-3.001,3-3.001s3,1.346,3,3       c0,0.276-0.224,0.5-0.5,0.5s-0.5-0.224-0.5-0.5c0-1.103-0.897-2-2-2s-2,0.897-2,2s0.897,2,2,2c0.276,0,0.5,0.224,0.5,0.5       S13.026,12.054,12.75,12.054z"></path><path fill="#12a8e1" d="M17.75,12.054h-2.5c-0.276,0-0.5-0.224-0.5-0.5v-2.5c0-0.276,0.224-0.5,0.5-0.5s0.5,0.224,0.5,0.5v2h2       c0.276,0,0.5,0.224,0.5,0.5S18.026,12.054,17.75,12.054z"></path><path fill="#12a8e1" d="M17.75,12.054c-0.276,0-0.5-0.224-0.5-0.5s0.224-0.5,0.5-0.5c1.103,0,2-0.896,2-1.999       c0-1.104-0.897-2.001-2-2.001s-2,0.897-2,2c0,0.276-0.224,0.5-0.5,0.5s-0.5-0.224-0.5-0.5c0-1.654,1.346-3,3-3s3,1.346,3,3       S19.404,12.054,17.75,12.054z"></path><path fill="#12a8e1" d="M16.25,29.054h-2c-0.276,0-0.5-0.224-0.5-0.5v-17c0-0.276,0.224-0.5,0.5-0.5h2c0.276,0,0.5,0.224,0.5,0.5      v17C16.75,28.83,16.526,29.054,16.25,29.054z M14.75,28.054h1v-16h-1V28.054z"></path><polygon fill="#80c8ef" points="22.65 5.454 24.25 5.054 22.65 4.654 22.25 3.054 21.85 4.654 20.25 5.054 21.85 5.454 22.25 7.054"></polygon><polygon fill="#80c8ef" points="24.45 8.254 25.25 8.054 24.45 7.854 24.25 7.054 24.05 7.854 23.25 8.054 24.05 8.254 24.25 9.054"></polygon><polygon fill="#80c8ef" points="25.45 4.254 26.25 4.054 25.45 3.854 25.25 3.054 25.05 3.854 24.25 4.054 25.05 4.254 25.25 5.054"></polygon></svg>