<svg xmlns="http://www.w3.org/2000/svg" width="682.667" height="682.667" fill-rule="evenodd" clip-rule="evenodd" image-rendering="optimizeQuality" shape-rendering="geometricPrecision" text-rendering="geometricPrecision" viewBox="0 0 7.111 7.111" id="group"><path fill="#00cf00" fill-rule="nonzero" d="M2.04603 3.87548c0.038122,0.0244961 0.0743976,0.0504213 0.108689,0.0776378 0.037,0.0293661 0.0729016,0.0611929 0.107524,0.0952992l0.000318898 -0.000185039c0.0414488,0.0408268 0.0483858,0.103457 0.0205472,0.151583 -0.0400551,0.0876063 -0.0713071,0.180004 -0.0925787,0.276028 -0.0211496,0.0954843 -0.032315,0.196075 -0.032315,0.300713l0 1.04763c0,0.0690354 -0.0559646,0.125 -0.125,0.125l-1.35098 0 -0.557236 0c-0.0690354,0 -0.125,-0.0559646 -0.125,-0.125l0 -0.829378c0,-0.231323 0.0602953,-0.449894 0.166012,-0.640795 0.109126,-0.197051 0.266969,-0.363906 0.456988,-0.484051l-0.00019685 -0.000311024c0.0583543,-0.0368819 0.135567,-0.0194803 0.172449,0.038874 0.00350787,0.00554724 0.00651969,0.0112677 0.00905512,0.0171063 0.0513425,0.0923937 0.126402,0.169874 0.21698,0.22424 0.0898504,0.0539291 0.1955,0.0849449 0.308902,0.0849449 0.113402,0 0.219051,-0.0310118 0.308906,-0.0849449 0.0934764,-0.0561063 0.170425,-0.136827 0.221835,-0.23315l-0.000413386 -0.00026378c0.0325039,-0.0609016 0.108232,-0.0839213 0.169134,-0.0514173 0.00581102,0.00310236 0.0112756,0.00659843 0.0163819,0.010437z"></path><path fill="#00a700" fill-rule="nonzero" d="M0.752165 5.94919l-0.0699291 0 -0.180071 0 0 -0.546264c0,-0.0690354 0.0559646,-0.125 0.125,-0.125 0.0690354,0 0.125,0.0559646 0.125,0.125l0 0.546264z"></path><path fill="#ffcf00" fill-rule="nonzero" d="M6.49678 3.87549c0.18615,0.119709 0.340858,0.284476 0.448315,0.478528 0.10572,0.190898 0.166016,0.409472 0.166016,0.640791l0 0.829378c0,0.0690354 -0.0559646,0.125 -0.125,0.125l-1.85314 0 -0.0550709 0c-0.0690354,0 -0.125,-0.0559646 -0.125,-0.125l0 -1.04763c0,-0.104642 -0.0111614,-0.20524 -0.032315,-0.300728 -0.022063,-0.0996024 -0.0548622,-0.195307 -0.0970945,-0.285807l-0.000480315 0.000125984c-0.0244961,-0.0524921 -0.00938583,-0.113307 0.0330669,-0.148768 0.0323976,-0.0314567 0.0658898,-0.0609252 0.100331,-0.0882677 0.0368622,-0.0292598 0.0760276,-0.0570354 0.117331,-0.0831496l-0.00019685 -0.000311024c0.0583543,-0.0368819 0.135567,-0.0194724 0.172449,0.0388819 0.00350787,0.00555118 0.00652362,0.0112795 0.00906299,0.017122 0.0513425,0.0923819 0.126398,0.169858 0.216969,0.22422 0.0898504,0.0539291 0.1955,0.0849449 0.308902,0.0849449 0.113402,0 0.219055,-0.0310157 0.308909,-0.0849449 0.0934685,-0.0561024 0.170421,-0.136827 0.221831,-0.23315l-0.000413386 -0.00026378c0.0325039,-0.0609016 0.108232,-0.0839213 0.169134,-0.0514173 0.0058189,0.0031063 0.0112874,0.0066063 0.0163976,0.0104488z"></path><path fill="#ffa700" fill-rule="nonzero" d="M6.60895 5.94919l-0.25 0 0 -0.546264c0,-0.0690354 0.0559646,-0.125 0.125,-0.125 0.0690354,0 0.125,0.0559646 0.125,0.125l0 0.546264z"></path><path fill="#3583ea" fill-rule="nonzero" d="M4.44 3.38895c0.231516,0.148394 0.423906,0.352992 0.557433,0.59411 0.130839,0.236264 0.205461,0.506909 0.205461,0.793492l0 1.04763c0,0.0690354 -0.0559646,0.125 -0.125,0.125l-2.34081 0 -0.703874 0c-0.0690354,0 -0.125,-0.0559646 -0.125,-0.125l0 -1.04763c0,-0.286587 0.074622,-0.557228 0.205461,-0.793492 0.135193,-0.244126 0.330724,-0.450823 0.566114,-0.599646l-0.00019685 -0.000311024c0.0583543,-0.0368819 0.135567,-0.0194803 0.172449,0.038874 0.0035315,0.00558661 0.00655512,0.0113504 0.0091063,0.0172323 0.0676969,0.122953 0.167165,0.226035 0.287378,0.298189 0.118531,0.0711457 0.257752,0.112055 0.407031,0.112055 0.14928,0 0.2885,-0.0409094 0.407031,-0.112055 0.12315,-0.0739134 0.224531,-0.180283 0.292287,-0.307224l-0.000413386 -0.00026378c0.0325039,-0.0609016 0.108232,-0.0839213 0.169134,-0.0514173 0.00582283,0.0031063 0.0112913,0.00661024 0.0164055,0.0104567z"></path><path fill="#2b6abe" fill-rule="nonzero" d="M2.79253 5.94919l-.055437 0-.194563 0 0-.685496c0-.0690354.0559646-.125.125-.125.0690354 0 .125.0559646.125.125l0 .685496zM4.56859 5.94919l-.25 0 0-.685496c0-.0690354.0559646-.125.125-.125.0690354 0 .125.0559646.125.125l0 .685496z"></path><path fill="#f4bb50" fill-rule="nonzero" d="M3.55556 1.16193c.287638 0 .548059.116602.736567.30511.188508.188508.30511.448929.30511.736567 0 .287634-.116598.548055-.30511.736563-.188508.188508-.448929.30511-.736567.30511-.287638 0-.548059-.116602-.736567-.30511-.188512-.188508-.30511-.448929-.30511-.736563 0-.287638.116602-.548059.30511-.736567.188508-.188508.448929-.30511.736567-.30511zM1.33019 2.15546c.208551 0 .397374.0845433.534055.221224.136681.136681.221224.325504.221224.534055 0 .208551-.0845433.397378-.221224.534059-.136681.136677-.3255.221224-.534055.221224-.208551 0-.397374-.0845472-.534055-.221228-.136677-.136681-.221224-.3255-.221224-.534055 0-.208551.0845433-.397374.221224-.534055.136681-.136681.325504-.221224.534055-.221224zM5.78092 2.15546c.208551 0 .397378.0845433.534059.221224.136677.136681.221224.325504.221224.534055 0 .208555-.0845472.397374-.221228.534055-.136677.136681-.325504.221228-.534055.221228-.208551 0-.39737-.0845472-.534051-.221228-.136677-.136681-.221224-.3255-.221224-.534055 0-.208551.0845433-.397374.221224-.534055.136681-.136677.3255-.221224.534051-.221224z"></path></svg>