<svg xmlns="http://www.w3.org/2000/svg" viewBox="0 0 150 150" id="market"><path fill="#ea8953" d="M11 11h128v128H11z"></path><path d="m46.315 39.326-8.81 9.6v7.9c0 2.07.84 3.95 2.2 5.3l.13.13 1.6 1.6v40.81h-.5a2 2 0 0 0-2 2v4.01L67.259 139H139V74.65l-35.315-35.324h-57.37z" opacity=".1"></path><path fill="#e1e6e9" d="M41.43 54.923h67.14v55.75H41.43z"></path><path fill="#3a556a" d="M111.07 110.673H38.93v-4.003a2 2 0 0 1 2-2h68.14a2 2 0 0 1 2 2v4.003z"></path><path fill="#44c4a1" d="M57.791 39.327H46.32l-8.819 9.6h15z"></path><path fill="#3ea69b" d="M37.5 48.928v7.9a7.5 7.5 0 1 0 15 0v-7.9h-15z"></path><path fill="#d15241" d="M52.5 48.928v7.9a7.5 7.5 0 1 0 15 0v-7.9h-15z"></path><path fill="#e56353" d="m67.5 48.928 1.764-9.6H57.79l-5.291 9.6z"></path><path fill="#2d93ba" d="M67.5 48.928v7.9a7.5 7.5 0 1 0 15 0v-7.9h-15z"></path><path fill="#27a2db" d="m82.5 48.928-1.764-9.6H69.264l-1.764 9.6z"></path><path fill="#f6c358" d="M82.5 48.928v7.9a7.5 7.5 0 1 0 15 0v-7.9h-15z"></path><path fill="#fcd462" d="m97.5 48.928-5.291-9.6H80.736l1.764 9.6z"></path><path fill="#64798a" d="m112.5 48.928-8.819-9.6H92.21l5.291 9.6z"></path><path fill="#3a556a" d="M97.5 48.928v7.9a7.5 7.5 0 1 0 15 0v-7.9h-15z"></path><path fill="#64798a" d="M45 70.852h22.264v33.818H45zM70.264 70.852H105v29.818H70.264z"></path><path fill="#27a2db" d="M75.723 71.393H99.54v28.736H75.723z" transform="rotate(90 87.632 85.76)"></path><path fill="#2d93ba" d="M73.264 97.67 102 73.852V97.67z"></path><path fill="#27a2db" d="M42.223 79.63H70.04v16.263H42.223z" transform="rotate(90 56.132 87.76)"></path><circle cx="60.407" cy="84.824" r="1.483" fill="#2d93ba"></circle><circle cx="60.407" cy="92.824" r="1.483" fill="#2d93ba"></circle><path fill="#1c75a1" d="M60.407 84.824a1 1 0 0 0-1 1v6a1 1 0 1 0 2 0v-6a1 1 0 0 0-1-1z"></path></svg>