<svg xmlns="http://www.w3.org/2000/svg" viewBox="0 0 48 48" id="paper-festoon"><linearGradient id="a" x1="886.262" x2="898.547" y1="-53.521" y2="-66.869" gradientTransform="matrix(3.0757 0 0 -3.0757 -2720.146 -160.458)" gradientUnits="userSpaceOnUse"><stop offset="0" stop-color="#6EC5A6"></stop><stop offset="1" stop-color="#3FC0EF"></stop></linearGradient><path fill="url(#a)" d="M10 0h28c5.523 0 10 4.477 10 10v28c0 5.523-4.477 10-10 10H10C4.477 48 0 43.523 0 38V10C0 4.477 4.477 0 10 0z"></path><path fill="#fff" d="M37.388 24.741c-.555.128-1.113.223-1.67.335a59.702 59.702 0 0 1-6.48.934 59.443 59.443 0 0 1-16.887-.92c-.58-.116-1.161-.216-1.739-.349a.5.5 0 0 0-.225.975c.475.109.954.189 1.43.287l2.194 5.942a.498.498 0 0 0 .85.15l4.273-5.045c.622.05 1.244.105 1.866.136v5.586a.499.499 0 0 0 .686.464L24 32.31l2.314.926a.49.49 0 0 0 .466-.05.499.499 0 0 0 .22-.414v-5.586c.636-.032 1.27-.088 1.906-.14l4.275 5.05a.5.5 0 0 0 .85-.15l2.197-5.952c.461-.095.925-.173 1.384-.278a.5.5 0 0 0-.224-.975zM14.65 30.795l-1.683-4.561c.803.149 1.609.275 2.416.392l.098.014c.81.115 1.618.222 2.43.305l-3.26 3.85zM26 32.034l-1.814-.726a.487.487 0 0 0-.372 0L22 32.034v-4.762h4v4.762zm7.39-1.24-3.263-3.853a60.954 60.954 0 0 0 2.447-.31l.069-.01a61.156 61.156 0 0 0 2.434-.396l-1.686 4.57zM10.389 15.717c.68.156 1.367.279 2.052.412l-.916 5.188a.5.5 0 0 0 .595.576l2.44-.508 2.119 1.313a.5.5 0 0 0 .756-.338l.946-5.374c.585.055 1.169.113 1.753.15l3.435 5.89a.5.5 0 0 0 .864 0l3.435-5.89c.584-.038 1.168-.095 1.753-.15l.946 5.374a.498.498 0 0 0 .756.338l2.12-1.313 2.439.508a.5.5 0 0 0 .595-.576l-.916-5.188c.685-.133 1.371-.256 2.052-.412a.5.5 0 0 0-.224-.975c-.851.196-1.707.356-2.563.514a59.861 59.861 0 0 1-2.856.45c-.632.087-1.264.168-1.895.234a59.46 59.46 0 0 1-12.148 0 60.074 60.074 0 0 1-1.895-.233 59.86 59.86 0 0 1-2.857-.451 60.026 60.026 0 0 1-2.562-.514.5.5 0 1 0-.224.975zm21.761.976c.285-.038.57-.079.854-.122.526-.08 1.052-.152 1.576-.245l.783 4.438-1.912-.399a.505.505 0 0 0-.366.065l-1.661 1.029-.804-4.559c.511-.056 1.02-.137 1.53-.207zm-5.52.58L24 21.78l-2.63-4.508h5.26zm-13.208-.947c.524.093 1.05.166 1.576.245.285.043.569.084.854.122.51.07 1.019.15 1.53.207l-.804 4.559-1.661-1.03a.497.497 0 0 0-.366-.064l-1.912.399.783-4.438z"></path></svg>