<svg xmlns="http://www.w3.org/2000/svg" enable-background="new 0 0 60 60" viewBox="0 0 60 60" id="shortcuts"><path fill="#fff" d="M50,60H10C4.477,60,0,55.523,0,50V10C0,4.477,4.477,0,10,0h40c5.523,0,10,4.477,10,10v40
		C60,55.523,55.523,60,50,60z"></path><path fill="#ff6684" d="M30,41c-1.514,0-2.97-0.459-4.212-1.327L9.065,27.966C7.772,27.061,7,25.578,7,24s0.772-3.061,2.065-3.966
			L25.788,8.327c2.485-1.736,5.943-1.735,8.424,0l0,0l16.723,11.707C52.228,20.938,53,22.422,53,24s-0.772,3.062-2.065,3.966
			L34.212,39.673C32.971,40.541,31.515,41,30,41z M30,9c-1.102,0-2.162,0.334-3.065,0.966L10.212,21.673C9.453,22.204,9,23.074,9,24
			s0.453,1.796,1.212,2.327l16.723,11.707c1.806,1.264,4.324,1.263,6.13,0l16.723-11.707C50.547,25.796,51,24.926,51,24
			s-0.453-1.796-1.212-2.327L33.065,9.966C32.162,9.334,31.103,9,30,9z"></path><path fill="#ffbdcc" d="M30,37c-0.69,0-1.354-0.209-1.919-0.604L11.359,24.688C11.134,24.531,11,24.273,11,24
			s0.134-0.531,0.359-0.688l16.723-11.707C28.646,11.209,29.31,11,30,11s1.354,0.209,1.919,0.604l16.722,11.707
			C48.866,23.469,49,23.726,49,24s-0.134,0.531-0.358,0.688L31.918,36.396C31.354,36.791,30.69,37,30,37z"></path><path fill="#78a0f0" d="M30,53c-1.514,0-2.97-0.459-4.212-1.327l-7.5-5.251c-0.452-0.317-0.562-0.94-0.246-1.393
			c0.317-0.452,0.94-0.562,1.393-0.246l7.5,5.251c1.806,1.264,4.324,1.264,6.13,0l16.723-11.707C50.547,37.796,51,36.926,51,36
			s-0.453-1.796-1.212-2.327L33.065,21.966c-1.806-1.264-4.323-1.264-6.131,0L10.212,33.673C9.453,34.204,9,35.074,9,36
			s0.453,1.796,1.212,2.327l5.946,4.162c0.453,0.316,0.562,0.94,0.246,1.393c-0.317,0.453-0.939,0.563-1.393,0.246l-5.946-4.162
			C7.772,39.061,7,37.578,7,36s0.772-3.061,2.065-3.966l16.722-11.707c2.485-1.736,5.943-1.735,8.424,0l16.723,11.707
			C52.228,32.938,53,34.422,53,36s-0.772,3.062-2.065,3.966L34.212,51.673C32.971,52.541,31.515,53,30,53z"></path></svg>