<svg xmlns="http://www.w3.org/2000/svg" xmlns:xlink="http://www.w3.org/1999/xlink" width="470" height="468" viewBox="0 0 470 468" id="videos"><defs><filter id="a" width="111.8%" height="111.9%" x="-5.9%" y="-3.9%" filterUnits="objectBoundingBox"><feOffset dy="5" in="SourceAlpha" result="shadowOffsetOuter1"></feOffset><feGaussianBlur in="shadowOffsetOuter1" result="shadowBlurOuter1" stdDeviation="4"></feGaussianBlur><feColorMatrix in="shadowBlurOuter1" result="shadowMatrixOuter1" values="0 0 0 0 0 0 0 0 0 0 0 0 0 0 0 0 0 0 0.078125 0"></feColorMatrix><feOffset dy="4" in="SourceAlpha" result="shadowOffsetOuter2"></feOffset><feGaussianBlur in="shadowOffsetOuter2" result="shadowBlurOuter2" stdDeviation="5.5"></feGaussianBlur><feColorMatrix in="shadowBlurOuter2" result="shadowMatrixOuter2" values="0 0 0 0 0 0 0 0 0 0 0 0 0 0 0 0 0 0 0.210824275 0"></feColorMatrix><feMerge><feMergeNode in="shadowMatrixOuter1"></feMergeNode><feMergeNode in="shadowMatrixOuter2"></feMergeNode></feMerge></filter><path id="b" d="M9.635 132.808C24.782 59.782 71.388 19.109 144.085 6.822c53.74-9.081 107.5-9.196 161.15.255 74.852 13.185 119.85 56.23 134.185 130.36 11.075 57.29 11.249 115.191-.174 172.427-15.324 72.52-63.132 117.285-135.561 129.527-53.74 9.08-107.5 9.195-161.15-.255-74.852-13.186-120.05-58.38-134.384-132.509-11.64-57.668-10.52-115.935 1.484-173.82z"></path></defs><g fill="none" fill-rule="evenodd" transform="translate(-21 -26)"><g transform="translate(32 33)"><use fill="#000" filter="url(#a)" xlink:href="#b"></use><use fill="#9A80FF" xlink:href="#b"></use></g><path fill="#FFF" d="M129.86 108h208.594v17.243h-211.75V337.5h-17.243l-.46-208.595c-.027-11.538 9.32-20.905 20.858-20.905zm190.51 46h17.243l.389 140.666c.065 23.638-19.078 42.834-42.715 42.834H154.62v-17.242h142.74c12.708 0 23.01-10.302 23.01-23.009V154zM205.223 270.48c-6.25 3.889-15.72.006-16.315-7.33a11.126 11.126 0 0 1-.036-.899v-79.54c0-.303.012-.603.036-.899.596-7.337 10.065-11.219 16.315-7.33l55.3 35.04c11.682 6.978 12.432 17.978 0 25.918l-55.3 35.04zm.982-76.792v57.586l42.153-28.793-42.153-28.793zm-54.917-18.521a9.417 9.417 0 1 1 0-18.834c5.201 0 9.417 4.216 9.417 9.417a9.417 9.417 0 0 1-9.417 9.417zm0 38.333a9.417 9.417 0 1 1 0-18.833 9.417 9.417 0 0 1 0 18.833zm0 37a9.417 9.417 0 1 1 0-18.833 9.417 9.417 0 0 1 0 18.833zm9.417 28.917c0 5.2-4.216 9.416-9.417 9.416a9.416 9.416 0 0 1-9.416-9.416 9.417 9.417 0 0 1 18.833 0zm134.583-104.25c-5.2 0-9.416-4.216-9.416-9.417 0-5.2 4.216-9.417 9.416-9.417s9.417 4.216 9.417 9.417a9.417 9.417 0 0 1-9.417 9.417zm0 38.333c-5.2 0-9.416-4.216-9.416-9.417 0-5.2 4.216-9.416 9.416-9.416s9.417 4.216 9.417 9.416a9.417 9.417 0 0 1-9.417 9.417zm0 37c-5.2 0-9.416-4.216-9.416-9.417 0-5.2 4.216-9.416 9.416-9.416s9.417 4.216 9.417 9.416a9.417 9.417 0 0 1-9.417 9.417zm0 38.333a9.416 9.416 0 0 1-9.416-9.416 9.417 9.417 0 1 1 9.416 9.416z" transform="translate(32 33)"></path></g></svg>